<svg width="100%" viewBox="0 0 1200 950" xmlns="http://www.w3.org/2000/svg" style="background-color: #1a1a1a;">
  <defs>
    <marker id="arrow" viewBox="0 0 10 10" refX="8" refY="5" markerWidth="6" markerHeight="6" orient="auto-start-reverse">
      <path d="M2 1L8 5L2 9" fill="none" stroke="#999" stroke-width="2" stroke-linecap="round" stroke-linejoin="round"/>
    </marker>
  </defs>

  <!-- Title -->
  <text x="600" y="45" text-anchor="middle" font-size="32" font-weight="bold" fill="#fff">Flujo ERC-4337: UserOperation → Transacción Ethereum</text>

  <!-- Row 1: Cliente, Bundler, Paymaster -->

  <!-- Cliente -->
  <rect x="40" y="100" width="240" height="110" rx="10" fill="#3c348d" stroke="#afade" stroke-width="2"/>
  <text x="160" y="145" text-anchor="middle" font-size="20" font-weight="bold" fill="#ceccf6">Cliente / dApp</text>
  <text x="160" y="175" text-anchor="middle" font-size="15" fill="#afa9ec">Construye y firma</text>
  <text x="160" y="200" text-anchor="middle" font-size="15" fill="#afa9ec">la UserOperation</text>

  <!-- Arrow 1 -->
  <line x1="280" y1="155" x2="370" y2="155" marker-end="url(#arrow)" stroke="#666" stroke-width="3"/>
  <text x="325" y="140" text-anchor="middle" font-size="13" fill="#999">eth_sendUserOperation</text>

  <!-- Bundler -->
  <rect x="370" y="100" width="240" height="110" rx="10" fill="#63380b" stroke="#efa627" stroke-width="2"/>
  <text x="490" y="145" text-anchor="middle" font-size="20" font-weight="bold" fill="#fac775">Bundler</text>
  <text x="490" y="175" text-anchor="middle" font-size="15" fill="#efa627">Valida y agrega</text>
  <text x="490" y="200" text-anchor="middle" font-size="15" fill="#efa627">UserOperations</text>

  <!-- Arrow 2 -->
  <line x1="610" y1="155" x2="700" y2="155" marker-end="url(#arrow)" stroke="#666" stroke-width="3"/>

  <!-- Paymaster (optional) -->
  <rect x="700" y="100" width="240" height="110" rx="10" fill="#085041" stroke="#5dccaa" stroke-width="2"/>
  <text x="820" y="145" text-anchor="middle" font-size="20" font-weight="bold" fill="#9fe1cb">Paymaster</text>
  <text x="820" y="175" text-anchor="middle" font-size="15" fill="#5dccaa">Patrocina gas</text>
  <text x="820" y="200" text-anchor="middle" font-size="15" fill="#5dccaa">(Opcional)</text>

  <!-- Row 2: Alt Mempool -->
  <rect x="370" y="310" width="240" height="110" rx="10" fill="#444441" stroke="#b4b2a9" stroke-width="2"/>
  <text x="490" y="355" text-anchor="middle" font-size="20" font-weight="bold" fill="#d3d1c7">Alt Mempool</text>
  <text x="490" y="385" text-anchor="middle" font-size="15" fill="#b4b2a9">UserOps pendientes</text>
  <text x="490" y="410" text-anchor="middle" font-size="15" fill="#b4b2a9">(Red P2P)</text>

  <!-- Arrow Bundler -> Mempool -->
  <line x1="490" y1="210" x2="490" y2="308" marker-end="url(#arrow)" stroke="#666" stroke-width="3"/>

  <!-- Row 3: EntryPoint -->
  <rect x="370" y="520" width="240" height="110" rx="10" fill="#713b13" stroke="#f09a7b" stroke-width="2"/>
  <text x="490" y="565" text-anchor="middle" font-size="20" font-weight="bold" fill="#f5c4b3">EntryPoint</text>
  <text x="490" y="595" text-anchor="middle" font-size="15" fill="#f09a7b">handleOps()</text>
  <text x="490" y="620" text-anchor="middle" font-size="15" fill="#f09a7b">Verifica y ejecuta</text>

  <!-- Arrow Mempool -> EntryPoint -->
  <line x1="490" y1="420" x2="490" y2="518" marker-end="url(#arrow)" stroke="#666" stroke-width="3"/>
  <text x="560" y="475" text-anchor="start" font-size="14" fill="#999">Ethereum tx</text>
  <text x="560" y="500" text-anchor="start" font-size="14" fill="#999">from: Bundler EOA</text>

  <!-- Row 4: Smart Account y Contrato Destino -->

  <!-- Smart Account -->
  <rect x="100" y="750" width="240" height="110" rx="10" fill="#0c447c" stroke="#85b7eb" stroke-width="2"/>
  <text x="220" y="795" text-anchor="middle" font-size="20" font-weight="bold" fill="#b5d4f4">Smart Account</text>
  <text x="220" y="825" text-anchor="middle" font-size="15" fill="#85b7eb">validateUserOp()</text>
  <text x="220" y="850" text-anchor="middle" font-size="15" fill="#85b7eb">+ execute()</text>

  <!-- Arrow EntryPoint -> Smart Account -->
  <line x1="410" y1="630" x2="300" y2="750" marker-end="url(#arrow)" stroke="#666" stroke-width="3"/>
  <text x="330" y="685" text-anchor="middle" font-size="14" fill="#999">1. Valida firma</text>

  <!-- Target Contract -->
  <rect x="680" y="750" width="240" height="110" rx="10" fill="#444441" stroke="#b4b2a9" stroke-width="2"/>
  <text x="800" y="795" text-anchor="middle" font-size="20" font-weight="bold" fill="#d3d1c7">Contrato Destino</text>
  <text x="800" y="825" text-anchor="middle" font-size="15" fill="#b4b2a9">DEX, NFT, protocolo</text>
  <text x="800" y="850" text-anchor="middle" font-size="15" fill="#b4b2a9">o lo que necesites</text>

  <!-- Arrow Smart Account -> Target -->
  <line x1="340" y1="805" x2="678" y2="805" marker-end="url(#arrow)" stroke="#666" stroke-width="3"/>
  <text x="509" y="790" text-anchor="middle" font-size="14" fill="#999">2. Ejecuta callData</text>

  <!-- Arrow EntryPoint -> Bundler Reembolso -->
  <line x1="570" y1="575" x2="770" y2="750" marker-end="url(#arrow)" stroke="#666" stroke-width="3"/>
  <text x="720" y="645" text-anchor="middle" font-size="14" fill="#999">Reembolso ETH</text>
  <text x="720" y="670" text-anchor="middle" font-size="14" fill="#999">al Bundler</text>

  <!-- Legend -->
  <g transform="translate(50, 920)">
    <rect x="0" y="0" width="20" height="20" rx="3" fill="#f2a623" opacity="0.8"/>
    <text x="30" y="15" font-size="15" fill="#ccc">Infraestructura off-chain</text>

    <rect x="400" y="0" width="20" height="20" rx="3" fill="#3b8bd4" opacity="0.8"/>
    <text x="430" y="15" font-size="15" fill="#ccc">Contratos on-chain</text>

    <rect x="800" y="0" width="20" height="20" rx="3" fill="#5dcaa5" opacity="0.8"/>
    <text x="830" y="15" font-size="15" fill="#ccc">Componente opcional</text>
  </g>
</svg>